<svg viewBox="0 0 420 200" xmlns="http://www.w3.org/2000/svg">
<text x="12" y="16" font-family="sans-serif" font-size="10" fill="#7A6F5F" letter-spacing="2">SEAT GLYPH: AVAILABLE / SELECTED / ARMREST (faces front = up)</text>
<g transform="translate(16,30)">
  <rect x="9" y="0" width="16" height="6.5" rx="3" fill='none' stroke='#4A4136' stroke-width='1.3' stroke-opacity='0.55'/>
  <rect x="1" y="9" width="32" height="10" rx="4.5" fill='none' stroke='#4A4136' stroke-width='1.3' stroke-opacity='0.55'/>
  <rect x="1" y="22" width="32" height="25" rx="7" fill='none' stroke='#4A4136' stroke-width='1.3' stroke-opacity='0.55'/>
  <line x1="8" y1="26" x2="8" y2="43" stroke="#4A4136" stroke-width="0.9" stroke-opacity="0.3"/>
  <line x1="26" y1="26" x2="26" y2="43" stroke="#4A4136" stroke-width="0.9" stroke-opacity="0.3"/>
</g><g transform="translate(66,30)">
  <rect x="9" y="0" width="16" height="6.5" rx="3" fill='#C75B12' fill-opacity='0.16' stroke='#C75B12' stroke-width='1.5'/>
  <rect x="1" y="9" width="32" height="10" rx="4.5" fill='#C75B12' fill-opacity='0.16' stroke='#C75B12' stroke-width='1.5'/>
  <rect x="1" y="22" width="32" height="25" rx="7" fill='#C75B12' fill-opacity='0.16' stroke='#C75B12' stroke-width='1.5'/>
  <line x1="8" y1="26" x2="8" y2="43" stroke="#C75B12" stroke-width="0.9" stroke-opacity="0.3"/>
  <line x1="26" y1="26" x2="26" y2="43" stroke="#C75B12" stroke-width="0.9" stroke-opacity="0.3"/>
</g>
<g transform="translate(120,38)"><rect x="0" y="0" width="15" height="30" rx="5" fill="none" stroke="#4A4136" stroke-width="1.3" stroke-opacity="0.55"/><circle cx="7.5" cy="9" r="2.6" fill="none" stroke="#4A4136" stroke-width="1" stroke-opacity="0.55"/><circle cx="7.5" cy="20" r="2.6" fill="none" stroke="#4A4136" stroke-width="1" stroke-opacity="0.55"/></g>
<text x="12" y="112" font-family="sans-serif" font-size="10" fill="#7A6F5F" letter-spacing="2">CASE GLYPHS: C / M / L / XL (seam + handle, scaled true)</text>
<g transform="translate(16,132)">
  <path d="M 8.32 0 Q 8.32 -6 10.92 -6 L 15.079999999999998 -6 Q 17.68 -6 17.68 0" fill="none" stroke="#4A4136" stroke-width="1.2" stroke-opacity="0.6"/>
  <rect x="0" y="0" width="26" height="20" rx="4.5" fill='none' stroke='#4A4136' stroke-width='1.3' stroke-opacity='0.55'/>
  <line x1="2.5" y1="8.4" x2="23.5" y2="8.4" stroke="#4A4136" stroke-width="0.9" stroke-opacity="0.35"/>
  <text x="13.0" y="15.600000000000001" font-family="monospace" font-size="9" fill="#7A6F5F" text-anchor="middle">C</text>
</g><g transform="translate(56,129)">
  <path d="M 9.92 0 Q 9.92 -6 13.02 -6 L 17.98 -6 Q 21.080000000000002 -6 21.080000000000002 0" fill="none" stroke="#4A4136" stroke-width="1.2" stroke-opacity="0.6"/>
  <rect x="0" y="0" width="31" height="24" rx="4.5" fill='#C75B12' fill-opacity='0.14' stroke='#C75B12' stroke-width='1.5'/>
  <line x1="2.5" y1="10.08" x2="28.5" y2="10.08" stroke="#C75B12" stroke-width="0.9" stroke-opacity="0.35"/>
  <text x="15.5" y="18.72" font-family="monospace" font-size="9" fill="#A84B0C" text-anchor="middle">M</text>
</g><g transform="translate(102,126)">
  <path d="M 11.52 0 Q 11.52 -6 15.12 -6 L 20.88 -6 Q 24.48 -6 24.48 0" fill="none" stroke="#4A4136" stroke-width="1.2" stroke-opacity="0.6"/>
  <rect x="0" y="0" width="36" height="28" rx="4.5" fill='none' stroke='#4A4136' stroke-width='1.3' stroke-opacity='0.55'/>
  <line x1="2.5" y1="11.76" x2="33.5" y2="11.76" stroke="#4A4136" stroke-width="0.9" stroke-opacity="0.35"/>
  <text x="18.0" y="21.84" font-family="monospace" font-size="9" fill="#7A6F5F" text-anchor="middle">L</text>
</g><g transform="translate(152,123)">
  <path d="M 12.8 0 Q 12.8 -6 16.8 -6 L 23.2 -6 Q 27.200000000000003 -6 27.200000000000003 0" fill="none" stroke="#4A4136" stroke-width="1.2" stroke-opacity="0.6"/>
  <rect x="0" y="0" width="40" height="31" rx="4.5" fill='none' stroke='#4A4136' stroke-width='1.3' stroke-opacity='0.55'/>
  <line x1="2.5" y1="13.02" x2="37.5" y2="13.02" stroke="#4A4136" stroke-width="0.9" stroke-opacity="0.35"/>
  <text x="20.0" y="24.18" font-family="monospace" font-size="9" fill="#7A6F5F" text-anchor="middle">XL</text>
</g>
</svg>