<svg viewBox="0 0 228 560" xmlns="http://www.w3.org/2000/svg">
<g fill="none" stroke="#4A4136" stroke-width="1.6" stroke-linecap="round" stroke-linejoin="round">
  <!-- body: measured stations from reference, nose-up, 1:2.71 -->
  <path d="M114 8 C 92 8 76 11 66 17 C 48 27 34 34 26 44 C 19 52 16 62 15 76 L 15 200 C 15 218 14 226 14 236 L 14 448 C 14 466 15 476 17 486 C 19 500 22 510 26 522 C 31 536 44 548 66 551 C 82 554 98 554 114 554 C 130 554 146 554 162 551 C 184 548 197 536 202 522 C 206 510 209 500 211 486 C 213 476 214 466 214 448 L 214 236 C 214 226 213 218 213 200 L 213 76 C 212 62 209 52 202 44 C 194 34 180 27 162 17 C 152 11 136 8 114 8 Z"/>
  <!-- mirrors at windshield base -->
  <path d="M14 218 C 6 214 2 216 2 220 C 2 225 8 227 15 223" stroke-width="1.3"/>
  <path d="M214 218 C 222 214 226 216 226 220 C 226 225 220 227 213 223" stroke-width="1.3"/>
</g>
<!-- glass: filled bands, fine strokes -->
<g fill="rgba(34,27,20,0.05)" stroke="#4A4136" stroke-width="1" stroke-opacity="0.45">
  <path d="M32 176 Q 114 168 196 176 L 188 226 Q 114 220 40 226 Z"/>
  <path d="M44 432 Q 114 426 184 432 L 198 484 Q 114 492 30 484 Z"/>
  <rect x="22" y="238" width="17" height="92" rx="5"/>
  <rect x="22" y="338" width="17" height="110" rx="5"/>
  <rect x="189" y="238" width="17" height="92" rx="5"/>
  <rect x="189" y="338" width="17" height="110" rx="5"/>
</g>
<!-- roof boundary + hood character lines + boot seam: faint -->
<g fill="none" stroke="#4A4136">
  <rect x="42" y="236" width="144" height="214" rx="24" stroke-width="1" stroke-opacity="0.16"/>
  <path d="M42 170 C 37 118 42 68 55 34" stroke-width="1" stroke-opacity="0.15"/>
  <path d="M186 170 C 191 118 186 68 173 34" stroke-width="1" stroke-opacity="0.15"/>
  <path d="M36 500 Q 114 508 192 500" stroke-width="1" stroke-opacity="0.16"/>
  <line x1="22" y1="331" x2="39" y2="336" stroke-width="1.6" stroke-opacity="0.6"/>
  <line x1="206" y1="331" x2="189" y2="336" stroke-width="1.6" stroke-opacity="0.6"/>
</g>
</svg>